<svg width="36" height="37" viewBox="0 0 36 37" fill="none" xmlns="http://www.w3.org/2000/svg">
<circle cx="18" cy="28.0881" r="2.5" transform="rotate(90 18 28.0881)" fill="#4185F4"/>
<circle cx="32.5" cy="18.0881" r="2" transform="rotate(90 32.5 18.0881)" fill="#4185F4"/>
<circle cx="3.5" cy="18.0881" r="2" transform="rotate(90 3.5 18.0881)" fill="#4185F4"/>
<circle cx="10.5" cy="32.5881" r="2" transform="rotate(90 10.5 32.5881)" fill="#4185F4"/>
<circle cx="10.5" cy="3.58813" r="2" transform="rotate(90 10.5 3.58813)" fill="#4185F4"/>
<circle cx="25.5" cy="32.5881" r="2" transform="rotate(90 25.5 32.5881)" fill="#4185F4"/>
<circle cx="25.5" cy="3.58813" r="2" transform="rotate(90 25.5 3.58813)" fill="#4185F4"/>
<circle cx="18" cy="18.0881" r="2.5" transform="rotate(90 18 18.0881)" fill="#4185F4"/>
<circle cx="18" cy="8.08813" r="2.5" transform="rotate(90 18 8.08813)" fill="#4185F4"/>
<circle cx="27" cy="13.0881" r="2.5" transform="rotate(90 27 13.0881)" fill="#4185F4"/>
<circle cx="27" cy="23.0881" r="2.5" transform="rotate(90 27 23.0881)" fill="#4185F4"/>
<circle cx="9" cy="13.0881" r="2.5" transform="rotate(90 9 13.0881)" fill="#4185F4"/>
<circle cx="9" cy="23.0881" r="2.5" transform="rotate(90 9 23.0881)" fill="#4185F4"/>
<path d="M16.6107 29.0882L18.1106 26.4901C13.7135 25.1061 13.7135 25.1061 10.3164 21.9901L8.81641 24.5882C13.2135 25.9722 13.2135 25.9722 16.6107 29.0882Z" fill="#4185F4"/>
<path d="M10.3164 14.0881L8.81643 11.49C13.2135 10.1061 13.2135 10.1061 16.6106 6.99006L18.1107 9.58812C13.7135 10.9721 13.7135 10.9721 10.3164 14.0881Z" fill="#4185F4"/>
<path d="M19.3887 29.1862L17.8887 26.5881C22.2858 25.2042 22.2858 25.2042 25.6829 22.0881L27.1829 24.6862C22.7858 26.0702 22.7858 26.0702 19.3887 29.1862Z" fill="#4185F4"/>
<path d="M17.8887 19.6371L19.3887 17.0391C22.7858 20.1551 22.7858 20.1551 27.1829 21.5391L25.6829 24.1372C22.2858 21.0211 22.2858 21.0211 17.8887 19.6371Z" fill="#4185F4"/>
<path d="M25.5 14.0881L27 11.49C22.6029 10.1061 22.6029 10.1061 19.2058 6.99006L17.7057 9.58812C22.1029 10.9721 22.1029 10.9721 25.5 14.0881Z" fill="#4185F4"/>
<path d="M25.5 22.5881L28.5 22.5881C27.5 18.0881 27.5 18.0881 28.5 13.5881L25.5 13.5881C26.5 18.0881 26.5 18.0881 25.5 22.5881Z" fill="#4185F4"/>
<path d="M7.5 22.5881L10.5 22.5881C9.5 18.0881 9.5 18.0881 10.5 13.5881L7.5 13.5881C8.5 18.0881 8.5 18.0881 7.5 22.5881Z" fill="#4185F4"/>
</svg>
