<svg width="36" height="37" viewBox="0 0 36 37" fill="none" xmlns="http://www.w3.org/2000/svg">
<circle cx="18" cy="28.0881" r="2.5" transform="rotate(90 18 28.0881)" fill="#4185F4"/>
<circle cx="32.5" cy="18.0881" r="2" transform="rotate(90 32.5 18.0881)" fill="#4185F4"/>
<circle cx="3.5" cy="18.0881" r="2" transform="rotate(90 3.5 18.0881)" fill="#4185F4"/>
<circle cx="10.5" cy="32.5881" r="2" transform="rotate(90 10.5 32.5881)" fill="#4185F4"/>
<circle cx="10.5" cy="3.58813" r="2" transform="rotate(90 10.5 3.58813)" fill="#4185F4"/>
<circle cx="25.5" cy="32.5881" r="2" transform="rotate(90 25.5 32.5881)" fill="#4185F4"/>
<circle cx="25.5" cy="3.58813" r="2" transform="rotate(90 25.5 3.58813)" fill="#4185F4"/>
<circle cx="18" cy="18.0881" r="2.5" transform="rotate(90 18 18.0881)" fill="#4185F4"/>
<circle cx="18" cy="8.08813" r="2.5" transform="rotate(90 18 8.08813)" fill="#4185F4"/>
<circle cx="27" cy="13.0881" r="2.5" transform="rotate(90 27 13.0881)" fill="#4185F4"/>
<circle cx="27" cy="23.0881" r="2.5" transform="rotate(90 27 23.0881)" fill="#4185F4"/>
<circle cx="9" cy="13.0881" r="2.5" transform="rotate(90 9 13.0881)" fill="#4185F4"/>
<circle cx="9" cy="23.0881" r="2.5" transform="rotate(90 9 23.0881)" fill="#4185F4"/>
<path d="M7.5 13.5881L10.5 13.5882C9.5 18.0881 9.5 18.0881 10.5 22.5881L7.5 22.5882C8.5 18.0881 8.5 18.0881 7.5 13.5881Z" fill="#4185F4"/>
<path d="M18.5 9.92358L20 7.32552C23.3971 10.4415 23.3971 10.4415 27.7942 11.8255L26.2943 14.4236C22.8971 11.3076 22.8971 11.3076 18.5 9.92358Z" fill="#4185F4"/>
<path d="M17.6817 9.92358L16.1817 7.32552C12.7846 10.4415 12.7846 10.4415 8.38747 11.8255L9.88745 14.4236C13.2846 11.3076 13.2846 11.3076 17.6817 9.92358Z" fill="#4185F4"/>
<path d="M17.6817 16.5881L17.6817 19.5881C13.1817 18.5881 13.1817 18.5881 8.6817 19.5881L8.68167 16.5881C13.1817 17.5881 13.1817 17.5881 17.6817 16.5881Z" fill="#4185F4"/>
</svg>
