<svg width="36" height="37" viewBox="0 0 36 37" fill="none" xmlns="http://www.w3.org/2000/svg">
<circle cx="18" cy="28.0881" r="2.5" transform="rotate(90 18 28.0881)" fill="#4185F4"/>
<circle cx="32.5" cy="18.0881" r="2" transform="rotate(90 32.5 18.0881)" fill="#4185F4"/>
<circle cx="3.5" cy="18.0881" r="2" transform="rotate(90 3.5 18.0881)" fill="#4185F4"/>
<circle cx="10.5" cy="32.5881" r="2" transform="rotate(90 10.5 32.5881)" fill="#4185F4"/>
<circle cx="10.5" cy="3.58813" r="2" transform="rotate(90 10.5 3.58813)" fill="#4185F4"/>
<circle cx="25.5" cy="32.5881" r="2" transform="rotate(90 25.5 32.5881)" fill="#4185F4"/>
<circle cx="25.5" cy="3.58813" r="2" transform="rotate(90 25.5 3.58813)" fill="#4185F4"/>
<circle cx="18" cy="18.0881" r="2.5" transform="rotate(90 18 18.0881)" fill="#4185F4"/>
<circle cx="18" cy="8.08813" r="2.5" transform="rotate(90 18 8.08813)" fill="#4185F4"/>
<circle cx="27" cy="13.0881" r="2.5" transform="rotate(90 27 13.0881)" fill="#4185F4"/>
<circle cx="27" cy="23.0881" r="2.5" transform="rotate(90 27 23.0881)" fill="#4185F4"/>
<circle cx="9" cy="13.0881" r="2.5" transform="rotate(90 9 13.0881)" fill="#4185F4"/>
<circle cx="9" cy="23.0881" r="2.5" transform="rotate(90 9 23.0881)" fill="#4185F4"/>
<path d="M7.5 13.5881L10.5 13.5882C9.5 18.0881 9.5 18.0881 10.5 22.5881L7.5 22.5882C8.5 18.0881 8.5 18.0881 7.5 13.5881Z" fill="#4185F4"/>
<path d="M17.3875 16.5881L17.3874 19.5881C12.8875 18.5881 12.8875 18.5881 8.38745 19.5881L8.38742 16.5881C12.8875 17.5881 12.8875 17.5881 17.3875 16.5881Z" fill="#4185F4"/>
<path d="M27.5 16.5881L27.5 19.5881C23 18.5881 23 18.5881 18.5 19.5881L18.5 16.5881C23 17.5881 23 17.5881 27.5 16.5881Z" fill="#4185F4"/>
<path d="M25.5 13.5881L28.5 13.5882C27.5 18.0881 27.5 18.0881 28.5 22.5881L25.5 22.5882C26.5 18.0881 26.5 18.0881 25.5 13.5881Z" fill="#4185F4"/>
<path d="M18.1125 26.0597L19.6126 28.6578C23.0097 25.5417 23.0097 25.5417 27.4068 24.1578L25.9068 21.5597C22.5097 24.6757 22.5097 24.6757 18.1125 26.0597Z" fill="#4185F4"/>
<path d="M17.6817 9.92365L16.1817 7.32558C12.7846 10.4416 12.7846 10.4416 8.38747 11.8256L9.88745 14.4237C13.2846 11.3076 13.2846 11.3076 17.6817 9.92365Z" fill="#4185F4"/>
</svg>
