<svg width="36" height="37" viewBox="0 0 36 37" fill="none" xmlns="http://www.w3.org/2000/svg">
<circle cx="18" cy="28.0881" r="2.5" transform="rotate(90 18 28.0881)" fill="#4185F4"/>
<circle cx="32.5" cy="18.0881" r="2" transform="rotate(90 32.5 18.0881)" fill="#4185F4"/>
<circle cx="3.5" cy="18.0881" r="2" transform="rotate(90 3.5 18.0881)" fill="#4185F4"/>
<circle cx="10.5" cy="32.5881" r="2" transform="rotate(90 10.5 32.5881)" fill="#4185F4"/>
<circle cx="10.5" cy="3.58813" r="2" transform="rotate(90 10.5 3.58813)" fill="#4185F4"/>
<circle cx="25.5" cy="32.5881" r="2" transform="rotate(90 25.5 32.5881)" fill="#4185F4"/>
<circle cx="25.5" cy="3.58813" r="2" transform="rotate(90 25.5 3.58813)" fill="#4185F4"/>
<circle cx="18" cy="18.0881" r="2.5" transform="rotate(90 18 18.0881)" fill="#4185F4"/>
<circle cx="18" cy="8.08813" r="2.5" transform="rotate(90 18 8.08813)" fill="#4185F4"/>
<circle cx="27" cy="13.0881" r="2.5" transform="rotate(90 27 13.0881)" fill="#4185F4"/>
<circle cx="27" cy="23.0881" r="2.5" transform="rotate(90 27 23.0881)" fill="#4185F4"/>
<circle cx="9" cy="13.0881" r="2.5" transform="rotate(90 9 13.0881)" fill="#4185F4"/>
<circle cx="9" cy="23.0881" r="2.5" transform="rotate(90 9 23.0881)" fill="#4185F4"/>
<path d="M10.3164 14.0881L8.81643 11.49C13.2135 10.1061 13.2135 10.1061 16.6106 6.99006L18.1107 9.58812C13.7135 10.9721 13.7135 10.9721 10.3164 14.0881Z" fill="#4185F4"/>
<path d="M16.5 8.58813L19.5 8.58816C18.5 13.0881 18.5 13.0881 19.5 17.5881L16.5 17.5882C17.5 13.0881 17.5 13.0881 16.5 8.58813Z" fill="#4185F4"/>
<path d="M16.5 18.5881L19.5 18.5882C18.5 23.0881 18.5 23.0881 19.5 27.5881L16.5 27.5882C17.5 23.0881 17.5 23.0881 16.5 18.5881Z" fill="#4185F4"/>
<path d="M25.5 14.0881L27 11.49C22.6029 10.1061 22.6029 10.1061 19.2058 6.99006L17.7057 9.58812C22.1029 10.9721 22.1029 10.9721 25.5 14.0881Z" fill="#4185F4"/>
</svg>
