<svg width="36" height="37" viewBox="0 0 36 37" fill="none" xmlns="http://www.w3.org/2000/svg">
<circle cx="18" cy="28.0881" r="2.5" transform="rotate(90 18 28.0881)" fill="#4185F4"/>
<circle cx="32.5" cy="18.0881" r="2" transform="rotate(90 32.5 18.0881)" fill="#4185F4"/>
<circle cx="3.5" cy="18.0881" r="2" transform="rotate(90 3.5 18.0881)" fill="#4185F4"/>
<circle cx="10.5" cy="32.5881" r="2" transform="rotate(90 10.5 32.5881)" fill="#4185F4"/>
<circle cx="10.5" cy="3.58813" r="2" transform="rotate(90 10.5 3.58813)" fill="#4185F4"/>
<circle cx="25.5" cy="32.5881" r="2" transform="rotate(90 25.5 32.5881)" fill="#4185F4"/>
<circle cx="25.5" cy="3.58813" r="2" transform="rotate(90 25.5 3.58813)" fill="#4185F4"/>
<circle cx="18" cy="18.0881" r="2.5" transform="rotate(90 18 18.0881)" fill="#4185F4"/>
<circle cx="18" cy="8.08813" r="2.5" transform="rotate(90 18 8.08813)" fill="#4185F4"/>
<circle cx="27" cy="13.0881" r="2.5" transform="rotate(90 27 13.0881)" fill="#4185F4"/>
<circle cx="27" cy="23.0881" r="2.5" transform="rotate(90 27 23.0881)" fill="#4185F4"/>
<circle cx="9" cy="13.0881" r="2.5" transform="rotate(90 9 13.0881)" fill="#4185F4"/>
<circle cx="9" cy="23.0881" r="2.5" transform="rotate(90 9 23.0881)" fill="#4185F4"/>
<path d="M10.3164 22.0881L8.81643 24.6862C13.2135 26.0702 13.2135 26.0702 16.6106 29.1862L18.1107 26.5881C13.7135 25.2042 13.7135 25.2042 10.3164 22.0881Z" fill="#4185F4"/>
<path d="M25.5 13.5881L28.5 13.5882C27.5 18.0881 27.5 18.0881 28.5 22.5881L25.5 22.5882C26.5 18.0881 26.5 18.0881 25.5 13.5881Z" fill="#4185F4"/>
<path d="M7.5 13.5881L10.5 13.5882C9.5 18.0881 9.5 18.0881 10.5 22.5881L7.5 22.5882C8.5 18.0881 8.5 18.0881 7.5 13.5881Z" fill="#4185F4"/>
<path d="M25.5 22.0881L27 24.6862C22.6029 26.0702 22.6029 26.0702 19.2058 29.1862L17.7057 26.5881C22.1029 25.2042 22.1029 25.2042 25.5 22.0881Z" fill="#4185F4"/>
</svg>
