<svg width="36" height="37" viewBox="0 0 36 37" fill="none" xmlns="http://www.w3.org/2000/svg">
<circle cx="32.5" cy="18.0881" r="2" transform="rotate(90 32.5 18.0881)" fill="#4185F4"/>
<circle cx="18" cy="28.0881" r="2.5" transform="rotate(90 18 28.0881)" fill="#4185F4"/>
<circle cx="3.5" cy="18.0881" r="2" transform="rotate(90 3.5 18.0881)" fill="#4185F4"/>
<circle cx="10.5" cy="32.5881" r="2" transform="rotate(90 10.5 32.5881)" fill="#4185F4"/>
<circle cx="10.5" cy="3.58813" r="2" transform="rotate(90 10.5 3.58813)" fill="#4185F4"/>
<circle cx="25.5" cy="32.5881" r="2" transform="rotate(90 25.5 32.5881)" fill="#4185F4"/>
<circle cx="25.5" cy="3.58813" r="2" transform="rotate(90 25.5 3.58813)" fill="#4185F4"/>
<circle cx="18" cy="18.0881" r="2.5" transform="rotate(90 18 18.0881)" fill="#4185F4"/>
<circle cx="18" cy="8.08813" r="2.5" transform="rotate(90 18 8.08813)" fill="#4185F4"/>
<circle cx="27" cy="13.0881" r="2.5" transform="rotate(90 27 13.0881)" fill="#4185F4"/>
<circle cx="27" cy="23.0881" r="2.5" transform="rotate(90 27 23.0881)" fill="#4185F4"/>
<circle cx="9" cy="13.0881" r="2.5" transform="rotate(90 9 13.0881)" fill="#4185F4"/>
<circle cx="9" cy="23.0881" r="2.5" transform="rotate(90 9 23.0881)" fill="#4185F4"/>
<path d="M19.3416 19.0881L17.8416 16.49C22.2387 15.1061 22.2387 15.1061 25.6358 11.9901L27.1358 14.5881C22.7387 15.9721 22.7387 15.9721 19.3416 19.0881Z" fill="#4185F4"/>
<path d="M16.6107 19.0881L18.1106 16.49C13.7135 15.1061 13.7135 15.1061 10.3164 11.9901L8.81641 14.5881C13.2135 15.9721 13.2135 15.9721 16.6107 19.0881Z" fill="#4185F4"/>
<path d="M25.5 22.5881L28.5 22.5881C27.5 18.0881 27.5 18.0881 28.5 13.5881L25.5 13.5881C26.5 18.0881 26.5 18.0881 25.5 22.5881Z" fill="#4185F4"/>
<path d="M7.5 22.5881L10.5 22.5881C9.5 18.0881 9.5 18.0881 10.5 13.5881L7.5 13.5881C8.5 18.0881 8.5 18.0881 7.5 22.5881Z" fill="#4185F4"/>
</svg>
