<svg width="36" height="37" viewBox="0 0 36 37" fill="none" xmlns="http://www.w3.org/2000/svg">
<circle cx="18" cy="28.0881" r="2.5" transform="rotate(90 18 28.0881)" fill="#4185F4"/>
<circle cx="32.5" cy="18.0881" r="2" transform="rotate(90 32.5 18.0881)" fill="#4185F4"/>
<circle cx="3.5" cy="18.0881" r="2" transform="rotate(90 3.5 18.0881)" fill="#4185F4"/>
<circle cx="10.5" cy="32.5881" r="2" transform="rotate(90 10.5 32.5881)" fill="#4185F4"/>
<circle cx="10.5" cy="3.58813" r="2" transform="rotate(90 10.5 3.58813)" fill="#4185F4"/>
<circle cx="24.5" cy="32.5881" r="2" transform="rotate(90 24.5 32.5881)" fill="#4185F4"/>
<circle cx="25.5" cy="3.58813" r="2" transform="rotate(90 25.5 3.58813)" fill="#4185F4"/>
<circle cx="18" cy="18.0881" r="2.5" transform="rotate(90 18 18.0881)" fill="#4185F4"/>
<circle cx="18" cy="8.08813" r="2.5" transform="rotate(90 18 8.08813)" fill="#4185F4"/>
<circle cx="27" cy="13.0881" r="2.5" transform="rotate(90 27 13.0881)" fill="#4185F4"/>
<circle cx="27" cy="23.0881" r="2.5" transform="rotate(90 27 23.0881)" fill="#4185F4"/>
<circle cx="9" cy="13.0881" r="2.5" transform="rotate(90 9 13.0881)" fill="#4185F4"/>
<circle cx="9" cy="23.0881" r="2.5" transform="rotate(90 9 23.0881)" fill="#4185F4"/>
<path d="M7.5 13.5881L10.5 13.5882C9.5 18.0881 9.5 18.0881 10.5 22.5881L7.5 22.5882C8.5 18.0881 8.5 18.0881 7.5 13.5881Z" fill="#4185F4"/>
<path d="M17.7057 9.63721L19.2058 7.03914C22.6029 10.1552 22.6029 10.1552 27 11.5391L25.5 14.1372C22.1029 11.0212 22.1029 11.0212 17.7057 9.63721Z" fill="#4185F4"/>
<path d="M17.7057 19.6372L19.2058 17.0391C22.6029 20.1552 22.6029 20.1552 27 21.5391L25.5 24.1372C22.1029 21.0212 22.1029 21.0212 17.7057 19.6372Z" fill="#4185F4"/>
<path d="M17.7057 16.5391L19.2058 19.1371C22.6029 16.0211 22.6029 16.0211 27 14.6371L25.5 12.039C22.1029 15.1551 22.1029 15.1551 17.7057 16.5391Z" fill="#4185F4"/>
<path d="M17.7057 26.5391L19.2058 29.1371C22.6029 26.0211 22.6029 26.0211 27 24.6371L25.5 22.039C22.1029 25.1551 22.1029 25.1551 17.7057 26.5391Z" fill="#4185F4"/>
<path d="M18.1471 26.5391L16.6471 29.1371C13.25 26.0211 13.25 26.0211 8.85287 24.6371L10.3528 22.039C13.75 25.1551 13.75 25.1551 18.1471 26.5391Z" fill="#4185F4"/>
</svg>
