<svg width="36" height="37" viewBox="0 0 36 37" fill="none" xmlns="http://www.w3.org/2000/svg">
<circle cx="18" cy="28.0881" r="2.5" transform="rotate(90 18 28.0881)" fill="#4185F4"/>
<circle cx="32.5" cy="18.0881" r="2" transform="rotate(90 32.5 18.0881)" fill="#4185F4"/>
<circle cx="3.5" cy="18.0881" r="2" transform="rotate(90 3.5 18.0881)" fill="#4185F4"/>
<circle cx="10.5" cy="32.5881" r="2" transform="rotate(90 10.5 32.5881)" fill="#4185F4"/>
<circle cx="10.5" cy="3.58813" r="2" transform="rotate(90 10.5 3.58813)" fill="#4185F4"/>
<circle cx="25.5" cy="32.5881" r="2" transform="rotate(90 25.5 32.5881)" fill="#4185F4"/>
<circle cx="25.5" cy="3.58813" r="2" transform="rotate(90 25.5 3.58813)" fill="#4185F4"/>
<circle cx="18" cy="18.0881" r="2.5" transform="rotate(90 18 18.0881)" fill="#4185F4"/>
<circle cx="18" cy="8.08813" r="2.5" transform="rotate(90 18 8.08813)" fill="#4185F4"/>
<circle cx="27" cy="13.0881" r="2.5" transform="rotate(90 27 13.0881)" fill="#4185F4"/>
<circle cx="27" cy="23.0881" r="2.5" transform="rotate(90 27 23.0881)" fill="#4185F4"/>
<circle cx="9" cy="13.0881" r="2.5" transform="rotate(90 9 13.0881)" fill="#4185F4"/>
<circle cx="9" cy="23.0881" r="2.5" transform="rotate(90 9 23.0881)" fill="#4185F4"/>
<path d="M10.3603 14.1862L8.86031 11.5881C13.2574 10.2041 13.2574 10.2041 16.6545 7.08808L18.1545 9.68614C13.7574 11.0701 13.7574 11.0701 10.3603 14.1862Z" fill="#4185F4"/>
<path d="M25.7943 14.1862L27.2942 11.5881C22.8971 10.2042 22.8971 10.2042 19.5 7.08814L18 9.6862C22.3971 11.0702 22.3971 11.0702 25.7943 14.1862Z" fill="#4185F4"/>
<path d="M16.6545 29.1862L18.1545 26.5881C13.7574 25.2042 13.7574 25.2042 10.3603 22.0881L8.86029 24.6862C13.2574 26.0702 13.2574 26.0702 16.6545 29.1862Z" fill="#4185F4"/>
<path d="M16.5 17.0881L19.5 17.0881C18.5 12.5881 18.5 12.5881 19.5 8.08813L16.5 8.08811C17.5 12.5881 17.5 12.5881 16.5 17.0881Z" fill="#4185F4"/>
<path d="M16.5 28.0881L19.5 28.0881C18.5 23.5881 18.5 23.5881 19.5 19.0881L16.5 19.0881C17.5 23.5881 17.5 23.5881 16.5 28.0881Z" fill="#4185F4"/>
</svg>
