<svg width="36" height="37" viewBox="0 0 36 37" fill="none" xmlns="http://www.w3.org/2000/svg">
<circle cx="18" cy="28.0881" r="2.5" transform="rotate(90 18 28.0881)" fill="#4185F4"/>
<circle cx="32.5" cy="18.0881" r="2" transform="rotate(90 32.5 18.0881)" fill="#4185F4"/>
<circle cx="3.5" cy="18.0881" r="2" transform="rotate(90 3.5 18.0881)" fill="#4185F4"/>
<circle cx="10.5" cy="32.5881" r="2" transform="rotate(90 10.5 32.5881)" fill="#4185F4"/>
<circle cx="10.5" cy="3.58813" r="2" transform="rotate(90 10.5 3.58813)" fill="#4185F4"/>
<circle cx="25.5" cy="32.5881" r="2" transform="rotate(90 25.5 32.5881)" fill="#4185F4"/>
<circle cx="25.5" cy="3.58813" r="2" transform="rotate(90 25.5 3.58813)" fill="#4185F4"/>
<circle cx="18" cy="18.0881" r="2.5" transform="rotate(90 18 18.0881)" fill="#4185F4"/>
<circle cx="18" cy="8.08813" r="2.5" transform="rotate(90 18 8.08813)" fill="#4185F4"/>
<circle cx="27" cy="13.0881" r="2.5" transform="rotate(90 27 13.0881)" fill="#4185F4"/>
<circle cx="27" cy="23.0881" r="2.5" transform="rotate(90 27 23.0881)" fill="#4185F4"/>
<circle cx="9" cy="13.0881" r="2.5" transform="rotate(90 9 13.0881)" fill="#4185F4"/>
<circle cx="9" cy="23.0881" r="2.5" transform="rotate(90 9 23.0881)" fill="#4185F4"/>
<path d="M19.3415 19.0881L17.8415 16.49C22.2386 15.1061 22.2386 15.1061 25.6357 11.9901L27.1357 14.5881C22.7386 15.9721 22.7386 15.9721 19.3415 19.0881Z" fill="#4185F4"/>
<path d="M19.3415 17.0391L17.8415 19.6372C22.2386 21.0211 22.2386 21.0211 25.6357 24.1371L27.1357 21.5391C22.7386 20.1551 22.7386 20.1551 19.3415 17.0391Z" fill="#4185F4"/>
<path d="M16.6107 19.0881L18.1106 16.49C13.7135 15.1061 13.7135 15.1061 10.3164 11.9901L8.81641 14.5881C13.2135 15.9721 13.2135 15.9721 16.6107 19.0881Z" fill="#4185F4"/>
<path d="M16.6107 17.0391L18.1106 19.6372C13.7135 21.0211 13.7135 21.0211 10.3164 24.1371L8.81641 21.5391C13.2135 20.1551 13.2135 20.1551 16.6107 17.0391Z" fill="#4185F4"/>
</svg>
