<svg width="36" height="37" viewBox="0 0 36 37" fill="none" xmlns="http://www.w3.org/2000/svg">
<circle cx="18" cy="28.0881" r="2.5" transform="rotate(90 18 28.0881)" fill="#4185F4"/>
<circle cx="32.5" cy="18.0881" r="2" transform="rotate(90 32.5 18.0881)" fill="#4185F4"/>
<circle cx="3.5" cy="18.0881" r="2" transform="rotate(90 3.5 18.0881)" fill="#4185F4"/>
<circle cx="10.5" cy="32.5881" r="2" transform="rotate(90 10.5 32.5881)" fill="#4185F4"/>
<circle cx="10.5" cy="3.58813" r="2" transform="rotate(90 10.5 3.58813)" fill="#4185F4"/>
<circle cx="25.5" cy="32.5881" r="2" transform="rotate(90 25.5 32.5881)" fill="#4185F4"/>
<circle cx="25.5" cy="3.58813" r="2" transform="rotate(90 25.5 3.58813)" fill="#4185F4"/>
<circle cx="18" cy="18.0881" r="2.5" transform="rotate(90 18 18.0881)" fill="#4185F4"/>
<circle cx="18" cy="8.08813" r="2.5" transform="rotate(90 18 8.08813)" fill="#4185F4"/>
<circle cx="27" cy="13.0881" r="2.5" transform="rotate(90 27 13.0881)" fill="#4185F4"/>
<circle cx="27" cy="23.0881" r="2.5" transform="rotate(90 27 23.0881)" fill="#4185F4"/>
<circle cx="9" cy="13.0881" r="2.5" transform="rotate(90 9 13.0881)" fill="#4185F4"/>
<circle cx="9" cy="23.0881" r="2.5" transform="rotate(90 9 23.0881)" fill="#4185F4"/>
<path d="M19.5 19.1862L18 16.5881C22.3971 15.2042 22.3971 15.2042 25.7942 12.0881L27.2943 14.6862C22.8971 16.0702 22.8971 16.0702 19.5 19.1862Z" fill="#4185F4"/>
<path d="M25.7943 24.1862L27.2942 21.5881C22.8971 20.2042 22.8971 20.2042 19.5 17.0881L18 19.6862C22.3971 21.0702 22.3971 21.0702 25.7943 24.1862Z" fill="#4185F4"/>
<path d="M16.5 17.0881L19.5 17.0881C18.5 12.5881 18.5 12.5881 19.5 8.08813L16.5 8.08811C17.5 12.5881 17.5 12.5881 16.5 17.0881Z" fill="#4185F4"/>
<path d="M16.5 28.0881L19.5 28.0881C18.5 23.5881 18.5 23.5881 19.5 19.0881L16.5 19.0881C17.5 23.5881 17.5 23.5881 16.5 28.0881Z" fill="#4185F4"/>
</svg>
